# xmcd
#
# Track frame offsets: 
#        150
#        12299
#        20794
#        31992
#        40220
#        48322
#        58474
#        68129
#        79744
#        90404
#        102187
#        110757
#        121894
#        133025
#        145215
#        156718
#        166379
#        176144
#        187041
#        196670
#        210976
#        221549
#        233247
#        241908
#        254621
#        267232
#
# Disc length: 3694 seconds
#
# Revision: 1
# Processed by: cddbd v1.5.2PL0 Copyright (c) Steve Scherf et al.
# Submitted via: ExactAudioCopyFreeDBPlugin 1.0
#
DISCID=7d0e6c1a
DTITLE=Various Artist - Dr Boogie Presents Wasa Wasa - Fabulous Rhyth
DTITLE=m 'N' Blues Shakers on the Dancefloor ! (1952-1968)
DYEAR=2010
DGENRE=Blues
TTITLE0=Rocky Roberts and the Airdales - T. Bird
TTITLE1=Eddy G. Giles - Go Go Train
TTITLE2=The Olympics - I'll Do a Little Bit More
TTITLE3=The Pac Keys - Diggin
TTITLE4=Johnny Jones and the King Casuals - It's Gonna Be Good
TTITLE5=Willie West - You Told Me
TTITLE6=Junior and the Classics - The Dog
TTITLE7=Shelton Dunaway - Betty and Dupree
TTITLE8=Big Brown and the Gamblers - My Testament
TTITLE9=Leon Haywood - Mellow Moonlight
TTITLE10=Dee Clark - Crossfire Time
TTITLE11=Lee Rogers - I Want You to Have Everything
TTITLE12=Frank Brunson - How You Are Gonna Live
TTITLE13=Elliot Shavers - Ugly in Laws
TTITLE14=Thomas East - I Get a Groove
TTITLE15=Bo Toliver and His Timers - Farm Dell Rock
TTITLE16=Marvin Philips and His Men From Mars - Wine Woogie
TTITLE17=Big Bob Kornegay - Bullfrog Hop
TTITLE18=Floyd Morris - A Mellow Mood
TTITLE19=Good Time Charlie - Whoop It on Me
TTITLE20=Frank Duboise - Chicken Scratch
TTITLE21=Jimmy Soul - Everybody's Gonna Ape
TTITLE22=Harold Battiste - Funky Soul
TTITLE23=George Torrence and the Naturals - Lickin Stick
TTITLE24=Chris Kenner - Wind the Clock
TTITLE25=Smokey Joe - Start All Over Again
EXTD=YEAR: 2010
EXTT0=
EXTT1=
EXTT2=
EXTT3=
EXTT4=
EXTT5=
EXTT6=
EXTT7=
EXTT8=
EXTT9=
EXTT10=
EXTT11=
EXTT12=
EXTT13=
EXTT14=
EXTT15=
EXTT16=
EXTT17=
EXTT18=
EXTT19=
EXTT20=
EXTT21=
EXTT22=
EXTT23=
EXTT24=
EXTT25=
PLAYORDER=
